<svg width="80" height="80" viewBox="0 0 80 80" fill="none" xmlns="http://www.w3.org/2000/svg">
<circle opacity="0.1" cx="40" cy="40" r="40" fill="white"/>
<path d="M52.3743 27.6365C50.7522 25.9983 48.8224 24.6968 46.6958 23.8067C44.5692 22.9166 42.2877 22.4555 39.9823 22.4498C37.6769 22.4441 35.3931 22.894 33.2621 23.7736C31.1312 24.6533 29.195 25.9453 27.5648 27.5754C25.9347 29.2056 24.6427 31.1417 23.7631 33.2727C22.8835 35.4037 22.4336 37.6875 22.4393 39.9928C22.4449 42.2982 22.9061 44.5798 23.7962 46.7064C24.6862 48.833 25.9877 50.7628 27.6259 52.3849C29.248 54.0231 31.1778 55.3246 33.3044 56.2147C35.4311 57.1047 37.7126 57.5659 40.018 57.5716C42.3233 57.5772 44.6071 57.1273 46.7381 56.2477C48.8691 55.3681 50.8052 54.0761 52.4354 52.446C54.0655 50.8158 55.3575 48.8796 56.2371 46.7487C57.1168 44.6177 57.5666 42.3339 57.561 40.0285C57.5553 37.7232 57.0942 35.4416 56.2041 33.315C55.314 31.1884 54.0125 29.2586 52.3743 27.6365V27.6365ZM25.0001 40.0107C24.9996 38.6831 25.1756 37.3614 25.5236 36.0802C26.097 37.3146 26.9298 38.381 27.4962 39.6474C28.2282 41.2755 30.1939 40.824 31.0618 42.2505C31.8322 43.5169 31.0095 45.1185 31.5861 46.4435C32.0048 47.4052 32.9923 47.6154 33.6736 48.3185C34.3697 49.0279 34.3548 49.9998 34.4611 50.9248C34.581 52.0116 34.7754 53.0888 35.0431 54.149C35.0431 54.1568 35.0431 54.1654 35.0493 54.1732C29.2032 52.1201 25.0001 46.5474 25.0001 40.0107ZM40.0001 55.0107C39.1624 55.0104 38.3262 54.9404 37.5001 54.8013C37.5087 54.5896 37.5126 54.3919 37.5337 54.2544C37.7236 53.0123 38.3454 51.7974 39.1845 50.8677C40.0134 49.9505 41.1493 49.3302 41.8493 48.2896C42.5353 47.274 42.7407 45.9068 42.4579 44.7201C42.0415 42.9669 39.6595 42.3818 38.3751 41.431C37.6368 40.8841 36.9798 40.0388 36.0103 39.9701C35.5634 39.9388 35.1892 40.0349 34.7462 39.9208C34.34 39.8154 34.0212 39.5966 33.5884 39.6537C32.7798 39.7599 32.2697 40.624 31.4009 40.5068C30.5767 40.3966 29.7275 39.4318 29.54 38.6466C29.2993 37.6372 30.0978 37.3099 30.9532 37.2201C31.3103 37.1826 31.7111 37.1419 32.054 37.2732C32.5056 37.4404 32.7189 37.8826 33.1243 38.106C33.8845 38.5232 34.0384 37.8568 33.922 37.1818C33.7478 36.1708 33.5447 35.7591 34.4462 35.063C35.0712 34.5833 35.6056 34.2365 35.5056 33.3747C35.4462 32.8685 35.1689 32.6396 35.4275 32.1357C35.6236 31.7521 36.1618 31.406 36.5126 31.1771C37.4181 30.5865 40.3915 30.6302 39.1767 28.9771C38.8196 28.4919 38.1611 27.6247 37.5361 27.506C36.7548 27.3583 36.4079 28.2302 35.8634 28.6146C35.3009 29.0122 34.2056 29.4638 33.6423 28.849C32.8845 28.0216 34.1446 27.7505 34.4236 27.1724C34.5525 26.9029 34.4236 26.5287 34.2064 26.1763C34.4881 26.0576 34.7746 25.9474 35.0657 25.8458C35.2482 25.9806 35.4647 26.0618 35.6907 26.0802C36.2134 26.1146 36.7064 25.8318 37.1626 26.188C37.6689 26.5787 38.0337 27.0724 38.7056 27.1943C39.3556 27.3122 40.0439 26.9333 40.2048 26.2677C40.3025 25.863 40.2048 25.4357 40.1111 25.0177C43.0329 25.0345 45.8855 25.9096 48.3142 27.5341C48.1579 27.4747 47.9712 27.4818 47.7407 27.5888C47.2665 27.8091 46.5947 28.3701 46.5392 28.9263C46.4759 29.5576 47.4071 29.6466 47.8493 29.6466C48.5134 29.6466 49.1861 29.3497 48.972 28.5826C48.879 28.2497 48.7525 27.9037 48.5486 27.6943C49.0387 28.0344 49.5083 28.4033 49.9548 28.799C49.9478 28.806 49.9407 28.8122 49.9337 28.8201C49.4837 29.2888 48.9611 29.6599 48.6532 30.2302C48.4361 30.6318 48.1915 30.8224 47.7517 30.9263C47.5095 30.9833 47.2329 31.0044 47.0298 31.1669C46.4642 31.6122 46.7861 32.6826 47.322 33.0037C47.9993 33.4091 49.004 33.2185 49.515 32.6396C49.9142 32.1865 50.1493 31.3997 50.8673 31.4005C51.1834 31.3999 51.487 31.5236 51.7126 31.7451C52.0095 32.0529 51.9509 32.3404 52.0142 32.7247C52.1259 33.4076 52.7282 33.0372 53.0946 32.6927C53.3617 33.168 53.6027 33.6576 53.8165 34.1591C53.4134 34.7396 53.0931 35.3724 52.1236 34.6958C51.5431 34.2904 51.1861 33.7021 50.4571 33.5193C49.8204 33.363 49.1681 33.5255 48.5392 33.6341C47.8243 33.7583 46.9767 33.813 46.4345 34.3544C45.9103 34.8763 45.6329 35.5747 45.0751 36.099C43.9962 37.1146 43.5407 38.2232 44.2392 39.6591C44.9111 41.0396 46.3165 41.7888 47.8329 41.6904C49.3228 41.5912 50.8704 40.7271 50.8275 42.8919C50.8118 43.6583 50.972 44.1888 51.2071 44.9005C51.4251 45.5568 51.4103 46.1927 51.4603 46.8701C51.5078 47.6632 51.6318 48.45 51.8306 49.2193C50.4303 51.0222 48.6364 52.4813 46.586 53.485C44.5357 54.4887 42.283 55.0106 40.0001 55.0107Z" fill="#3671E9"/>
</svg>
